<?xml version="1.0" encoding="UTF-8"?>
<!DOCTYPE svg PUBLIC "-//W3C//DTD SVG 1.1//EN" "http://www.w3.org/Graphics/SVG/1.1/DTD/svg11.dtd">
<!-- Creator: CorelDRAW 2021 (64-Bit) -->
<svg xmlns="http://www.w3.org/2000/svg" xml:space="preserve" width="2in" height="1.77098in" version="1.1" style="shape-rendering:geometricPrecision; text-rendering:geometricPrecision; image-rendering:optimizeQuality; fill-rule:evenodd; clip-rule:evenodd"
viewBox="0 0 1276.93 1130.71"
 xmlns:xlink="http://www.w3.org/1999/xlink"
 xmlns:xodm="http://www.corel.com/coreldraw/odm/2003">
 <defs>
  <style type="text/css">
   <![CDATA[
    .fil0 {fill:white}
    .fil1 {fill:#FEFEFE;fill-rule:nonzero}
   ]]>
  </style>
 </defs>
 <rect class="fil0" x="-1638.47" y="-19.91" width="1276.93" height="1170.52"/>
 <g id="Слой_x0020_1">
  <metadata id="CorelCorpID_0Corel-Layer"/>
  <g id="_1933708207792">
   <path class="fil1" d="M638.09 45.91c-194.68,-0.58 -351.74,68.78 -473.49,203.68 22.04,-31.39 46.28,-59.66 73.05,-85.05 97.63,-92.78 226.53,-145.06 384.98,-151.29 166.41,-6.58 306.74,44.89 413.14,142.87 38.54,35.54 72.7,77.09 102.01,124.17 -125.1,-155.1 -290.7,-234.96 -499.69,-234.38l0 0zm-535 282.74c-159.14,242.92 -137.79,601.93 90.36,792.35 36.12,31.04 52.85,-21.58 39.35,-28.62 -19.27,-10.04 -182.57,-192.15 -183.49,-375.4 -0.23,-57.24 2.42,-105.59 8.65,-148.29 41.66,-285.97 303.62,-473.26 580.24,-479.95 286.66,6.93 547.93,201.6 582.78,499.46 4.39,37.85 6.35,80.09 6.12,128.79 -0.93,183.37 -164.22,365.48 -183.49,375.4 -13.5,6.93 3.23,59.66 39.35,28.62 213.14,-177.95 240.73,-472.68 130.98,-713.76 -39.47,-105.59 -96.71,-193.53 -169.41,-260.35 -109.17,-100.28 -252.5,-152.91 -422.37,-146.33 -161.68,6.35 -293.35,59.78 -393.17,154.75 -50.21,47.66 -92.21,105.71 -125.91,173.34l0 0z"/>
   <path class="fil1" d="M613.12 787.91c-0.12,1.15 -0.12,2.19 0,3.23 0.23,1.39 0.58,2.65 1.15,3.93 0.46,-2.31 -0.23,-4.73 -1.15,-7.16zm-10.39 -25.62c0.23,-1.38 0.23,-2.65 0.12,-4.04 -0.23,-1.62 -0.69,-3.23 -1.38,-4.62 -0.58,2.89 0.11,5.66 1.27,8.65l0 0zm-9.35 34.85c0.69,-1.73 1.04,-3.35 0.93,-4.85 -0.12,-1.27 -0.46,-2.54 -1.04,-3.81 -0.81,2.89 -1.15,5.77 0.11,8.66l0 0zm97.52 -512.96l-0.46 -5.54c-0.46,-5.42 -0.81,-11.08 -1.62,-16.62l-2.08 -2.54 -2.08 2.54c-0.69,7.16 -0.81,14.19 -0.12,21.24 0.69,6.93 1.96,13.73 4.16,20.42l0.46 0.58 0.34 -0.69c0.46,-4.5 0.69,-9 1.04,-13.85l0.35 -5.54 0 0zm41.08 -3.81l-0.34 -5.77c-0.23,-4.62 -0.58,-8.77 -1.04,-12.81l-1.96 -2.42 -2.08 2.19c-1.04,7.04 -1.38,14.08 -1.04,21.12 0.34,7.04 1.5,14.08 3.46,21.12l0.46 0.58 0.34 -0.58c0.69,-6.12 1.27,-11.88 1.73,-17.31l0.46 -6.12 0 0zm247.54 742.15c-5.89,-0.46 -13.5,1.73 -20.31,5.31 -6.81,3.58 -12.92,8.54 -16.16,13.85 3.81,1.04 7.62,1.62 11.2,1.5 4.27,-0.11 8.54,-1.38 12.69,-3.81 3.69,-2.19 6.58,-4.85 8.77,-7.96 1.73,-2.65 3,-5.54 3.81,-8.89l0 0zm-422.26 -396.98l-0.69 1.04c-0.35,0.81 -0.46,1.73 0,3 9,25.62 18.46,52.74 27.92,79.97l8.19 23.66c0.12,-1.85 0.12,-3.57 -0.34,-5.08 -6,-18.12 -12,-35.54 -18,-52.97l-17.08 -49.62 0 0zm46.85 194.91l-1.15 4.16c-2.42,8.77 -4.85,17.54 -7.04,26.08 -0.46,1.85 -0.23,3.57 0.34,5.19 0.69,1.62 2.08,3.11 3.69,4.16 1.73,1.04 3.69,1.5 5.54,1.38 1.85,-0.12 3.69,-0.69 5.31,-1.85 1.62,-1.15 2.77,-2.65 3.23,-4.38 0.58,-1.62 0.58,-3.46 0,-5.31 -1.04,-3.35 -2.19,-6.58 -3.35,-9.81l-6.57 -19.62 0 0zm-304.08 -269.23c0.92,5.89 2.65,11.43 5.08,16.39 2.89,5.89 6.93,11.31 12,16.27l4.73 -4.73c4.27,-4.27 8.54,-8.43 12.35,-12.93 5.08,-5.89 7.62,-13.04 7.85,-20.08 0.23,-7.27 -2.08,-14.66 -6.69,-21l-0.12 -0.12c-3.23,-4.38 -7.85,-7.04 -12.69,-7.85 -4.85,-0.81 -10.04,0.46 -14.54,3.69l-0.12 0.12c-2.65,1.85 -4.73,4.62 -6.23,7.39l-0.81 1.85c2.08,-1.73 4.39,-2.89 6.69,-3.35 4.04,-0.81 8.19,0 12,2.77l1.62 1.39c2.54,2.42 3.93,5.77 4.16,9.12 0.23,3.35 -0.69,6.81 -2.89,9.58l-1.62 1.85c-3.46,3.23 -7.27,4.62 -11.43,4.04 -2.99,-0.47 -6.11,-1.85 -9.34,-4.39l0 0zm309.97 185.8l91.17 -331.9 0.23 -4.5c-2.31,-8.88 -4.85,-18 -7.39,-27.12l-40.62 167.68c-14.65,60.59 -29.43,121.17 -44.08,180.83 -0.81,3.46 -0.92,6.58 -0.46,9.69 -0,1.84 0.46,3.57 1.15,5.31l0 0zm-298.08 -37.27c4.62,-3.23 8.89,-4.62 13.16,-4.16 4.38,0.46 8.54,2.89 12.46,7.39l5.77 6.23c1.96,2.08 3.93,4.04 5.89,5.89 2.65,2.42 5.66,4.04 8.89,4.73 3.23,0.69 6.81,0.58 10.5,-0.58 3.23,-0.92 5.89,-2.42 7.96,-4.62 1.15,-1.15 2.19,-2.65 3.12,-4.27 -2.54,0.81 -5.19,1.04 -7.62,0.58 -2.89,-0.58 -5.54,-1.96 -7.5,-4.16 -2.08,-2.42 -3.23,-5.08 -3.35,-7.73 -0.23,-2.77 0.58,-5.54 2.31,-8.08 1.62,-2.42 4.16,-4.16 6.93,-5.08 2.77,-0.93 5.89,-1.04 8.88,-0.23 4.27,1.15 8.2,4.27 10.96,8.31 2.65,4.04 4.38,8.89 4.27,13.73 -0.12,6.93 -2.65,13.62 -6.93,19.16 -4.16,5.54 -10.16,10.16 -17.08,12.81 -4.27,1.62 -8.54,2.42 -12.81,2.65 -3.46,0.11 -6.81,-0.12 -10.27,-0.69 0.46,6 -0.12,10.04 -2.08,13.15 -1.85,2.89 -4.96,4.73 -9.69,6.23 5.65,3.35 11.54,6 17.66,8.19 6.93,2.42 14.31,4.04 21.81,4.96l4.04 -1.62 5.31 -6c6.93,-7.73 13.85,-15.47 20.08,-23.54 6.12,-7.96 9.46,-16.38 10.39,-24.93 0.81,-8.88 -0.92,-18.12 -5.19,-27.47 -10.85,-23.88 -31.62,-39.81 -52.28,-55.74l-1.39 -1.04c-9.46,5.89 -17.89,12.47 -25.04,20.19 -7.39,7.96 -13.5,16.96 -18.12,27.12 -1.5,3.35 -2.19,6.69 -2.31,10.27 0.12,2.42 0.47,5.31 1.27,8.31l0 0zm63.7 -154.06c0.34,9.46 -1.73,17.42 -6.12,24.01 -4.38,6.69 -11.19,12.12 -20.08,16.16 -4.85,2.19 -9.58,5.08 -14.43,8.08l-4.73 2.89 24.12 20.54c6.93,-4.04 13.27,-8.54 18.93,-13.62 6,-5.31 11.2,-11.31 15.7,-18 7.04,-10.62 13.27,-21.7 19.39,-32.66l0.34 -0.58c1.15,-2.19 2.65,-4.04 4.38,-5.77 3.69,-3.58 8.19,-5.77 12.93,-6.46 4.73,-0.69 9.69,0.12 14.08,2.65 1.85,1.04 3.69,2.42 5.31,4.16l2.08 2.65c1.85,-3.46 3.12,-7.73 3.69,-12.35 0.81,-5.54 0.69,-11.43 -0.58,-16.74 -0.58,-2.65 -1.38,-5.65 -2.31,-8.31 -0.93,-2.54 -2.19,-4.96 -3.93,-6.69 -6.93,-7.04 -14.77,-11.88 -23.31,-14.31 -8.19,-2.31 -17.19,-2.19 -26.77,0.34 -1.62,0.46 -3.11,1.04 -4.73,1.62 -1.62,0.69 -3.23,1.39 -4.85,1.85 -3.12,0.81 -6.23,0.93 -9.12,0.46 -3.92,-0.69 -7.62,-2.54 -10.5,-5.08 -2.89,-2.54 -5.08,-5.89 -6.12,-9.58 -0.69,-2.54 -0.93,-5.31 -0.46,-8.08 0.23,-1.38 0.58,-2.54 1.04,-3.81l-19.04 7.27c-4.04,1.5 -7.85,3.46 -11.2,5.77 -3.46,2.31 -6.58,5.08 -9.35,8.19 -2.42,2.65 -4.5,5.54 -6.23,8.54 -1.15,2.08 -2.08,4.27 -2.89,6.58 8.54,-2.65 16.5,-3.23 24.12,-1.85 8.65,1.5 16.73,5.54 24.35,11.89 3.46,2.89 7.39,4.73 11.54,5.77 4.27,1.04 8.77,1.04 13.27,0.11 3.46,-0.69 6.81,-1.85 10.04,-2.89l7.16 -2.31 -0.11 2.78c-0.34,6.69 -2.65,12.23 -7.27,16.73 -3.92,3.92 -10.16,7.27 -18.35,10.04l0 0zm60.82 39l-3.23 2.77c-4.16,3.58 -8.19,7.16 -12.35,10.39 -11.42,8.89 -24.47,14.89 -37.62,20.78l-2.65 1.15c-3.69,1.62 -7.27,3.58 -10.96,5.54l-2.89 1.62c4.85,4.27 9.81,7.96 15,11.2 5.08,3.12 10.39,5.89 16.16,8.19 -0.58,-4.27 -0.23,-8.19 1.38,-11.54 1.62,-3.46 4.27,-6.46 8.31,-8.77 3.81,-2.19 7.62,-3.11 11.43,-2.89 3.92,0.23 7.73,1.62 11.54,4.04 7.73,5.08 16.04,8.89 24.58,11.89 8.65,2.89 17.66,5.08 26.89,6.35 11.31,1.62 21.93,1.38 31.74,-1.39 9.81,-2.65 18.81,-7.85 26.89,-15.7 1.5,-1.38 2.89,-3.11 4.27,-4.85 -1.62,-0.23 -2.89,-0.46 -4.27,-0.81 -1.73,-0.58 -3.23,-1.27 -4.73,-2.08 -3.81,-2.42 -6.69,-5.89 -8.08,-9.81 -1.5,-4.04 -1.62,-8.42 -0.23,-12.81 0.46,-1.62 1.27,-3.23 2.19,-4.73l2.54 -4.04c2.19,-3.35 4.5,-6.69 5.31,-10.04 2.65,-10.39 3.35,-20.54 1.73,-30.23 -1.5,-9.12 -4.96,-17.89 -10.62,-26.31l-3.69 -1.62c-1.85,0.11 -4.04,0.34 -6.12,0.58 -1.85,0.23 -3.81,0.46 -5.89,0.58 -8.65,0.34 -16.96,-0.81 -24.93,-2.89 -7.96,-2.08 -15.58,-5.19 -23.08,-8.77l-4.16 -2.08c1.85,4.38 2.89,8.88 3.35,13.39 0.46,5.19 0,10.39 -1.27,15.7 -1.15,4.73 -1.85,9.46 -2.19,14.31 -0.35,4.85 -0.12,9.58 0.58,14.31 0.58,4.73 2.89,8.89 6.12,12 3.23,3.11 7.5,5.19 12.35,5.65 2.31,0.23 4.62,0.11 6.93,0.11l5.54 -0.11 -0.23 2.19c-0.81,6 -4.04,11.54 -8.65,15.58 -4.62,4.04 -10.62,6.81 -17.08,7.16 -6.81,0.46 -13.27,-1.96 -18.7,-6.69 -4.51,-4.05 -8.43,-9.93 -11.2,-17.32zm292.66 -219.72l-1.38 4.96c-3.12,10.96 -6.23,21.93 -9,33 -0.34,1.39 -0.46,2.89 -0.46,4.27 0,1.62 0.23,3.23 0.69,4.73 16.16,58.05 33.12,118.52 50.08,178.76l66.81 237.5 53.31 190.18c1.15,4.27 2.77,8.19 4.85,12 2.08,3.69 4.62,7.16 7.73,10.27 2.08,2.08 4.96,3.35 7.73,3.57 2.08,0.23 4.27,-0.11 6.12,-1.04 -2.77,-3 -5.08,-6.35 -7.15,-9.81 -2.42,-4.16 -4.16,-8.54 -5.42,-13.39 -6.81,-26.08 -13.85,-52.05 -20.77,-78.12l-53.43 -200.69c-33.01,-125.21 -65.55,-251.11 -99.71,-376.21l0 0zm-186.72 276.04c-7.16,6.23 -14.89,11.42 -22.97,15.81 -8.88,4.73 -18.35,8.43 -28.39,10.85 -10.04,2.54 -20.19,3.81 -30.35,3.92 -8.89,0 -17.77,-0.81 -26.77,-2.77 10.5,20.54 12.93,39.47 8.54,56.89 -4.27,16.96 -15.11,32.54 -31.16,46.97l1.85 -0.58c4.96,-1.39 10.04,-2.89 14.77,-4.62 10.5,-3.93 18.93,-9.46 25.16,-16.73 6.23,-7.27 10.39,-16.16 12.35,-26.89 0.46,-2.65 1.15,-5.31 1.85,-7.85 0.81,-2.77 1.62,-5.19 2.42,-7.73 2.19,-6.81 6.69,-12.58 12.47,-16.62 5.89,-4.04 13.04,-6.46 20.43,-6.35 3.81,0 7.39,1.39 10.04,3.58 2.77,2.19 4.62,5.42 5.19,9.12 0.58,3.81 -0.46,7.39 -2.65,10.39 -2.08,2.89 -5.31,5.19 -9.35,6.23 -3.46,0.81 -7.04,0.23 -10.27,-1.39 -3.12,-1.62 -5.89,-4.27 -7.27,-7.5l-0.58 -1.62c-2.08,1.85 -3.81,3.92 -5.31,6.12 -1.85,2.77 -3.23,5.89 -3.81,9.23 -0.81,4.27 -1.04,8.54 -1.27,12.93 -0.12,3.23 -0.35,6.35 -0.69,9.58 -0.23,2.54 -0.58,5.08 -1.04,7.73 -0.46,2.65 -1.04,5.19 -1.85,7.73 -2.89,8.43 -7.39,14.89 -13.5,19.39 -6.12,4.62 -13.85,7.39 -22.73,8.42 3.81,5.54 6,11.08 6.12,16.62 0.12,6.35 -2.19,12.58 -7.39,18.58 -3.46,4.04 -7.39,6.69 -11.77,8.19 -4.62,1.62 -9.81,1.85 -15.12,1.04l-2.77 -0.46 1.39 -2.42c0.81,-1.38 1.62,-2.65 2.54,-4.04 1.73,-2.65 3.35,-5.19 4.16,-7.85 0.58,-1.85 0.81,-3.81 0.81,-5.65 0,-4.16 -1.5,-8.19 -4.04,-11.43 -2.54,-3.23 -6.12,-5.89 -10.27,-7.16 -1.96,-0.58 -4.04,-0.92 -6.23,-1.04l-3.81 1.15c-11.88,9.81 -23.66,19.73 -34.74,30.35 -11.2,10.62 -21.58,21.93 -30.58,34.5 -4.85,6.81 -7.73,14.08 -8.88,21.46 -1.15,7.96 -0.35,16.16 2.08,24.35 1.38,4.5 3.92,7.85 7.39,10.39 2.89,2.19 6.46,3.69 10.27,4.85l0 -0.46c0,-2.31 0,-4.5 0.58,-6.81 0.23,-1.04 0.58,-1.96 1.04,-2.89 1.85,-4.16 4.96,-7.16 8.77,-8.89 3.81,-1.73 8.19,-2.19 12.69,-1.04 1.04,0.23 2.19,0.69 3.23,1.15 4.04,1.73 7.73,2.42 11.54,2.08 3.81,-0.23 7.62,-1.5 11.42,-3.46 1.39,-0.69 2.54,-1.85 3.58,-3.23 1.73,-2.54 2.77,-5.89 3,-9.35 0.23,-3.46 -0.34,-7.16 -1.85,-10.04 -0.92,-1.85 -2.31,-3.46 -4.04,-4.73 -1.62,-1.15 -3.46,-1.96 -5.19,-2.31 -1.04,-0.23 -2.08,-0.23 -3.12,-0.23l0.46 1.39c0.93,2.65 1.73,5.08 1.85,7.73 0.12,3 -1.04,5.65 -2.89,7.73 -1.85,2.08 -4.62,3.69 -7.73,4.5 -2.65,0.69 -5.42,0.34 -8.08,-0.58 -2.54,-0.93 -4.96,-2.65 -6.58,-4.85 -1.73,-2.42 -2.65,-5.19 -2.54,-7.96 0.12,-2.77 1.04,-5.54 2.89,-7.85 2.08,-2.65 4.62,-4.5 7.39,-5.89 2.19,-1.04 4.73,-1.73 7.39,-2.08 -0.46,-3.92 -0.12,-7.62 1.04,-10.85 1.5,-3.93 4.27,-7.27 8.77,-9.92 2.42,-1.5 5.08,-2.42 7.73,-2.65 2.77,-0.35 5.66,0 8.65,1.04l3 1.04 -2.19 2.19c-2.08,1.96 -3.69,4.04 -4.73,6.23 -0.92,2.08 -1.15,4.27 -0.58,6.69 0.35,1.5 0.93,2.89 1.62,4.27 0.58,1.04 1.27,2.19 2.08,3 2.54,2.54 4.62,5.19 6.35,7.96 4.85,7.85 6.81,16.5 5.89,24.93 -1.04,8.42 -4.85,16.5 -11.42,23.08 -2.42,2.42 -5.19,4.62 -8.19,6.58 -5.19,3.23 -10.62,5.54 -16.27,7.27 -4.73,1.39 -9.81,2.19 -15,2.54l0.34 0.92c1.04,2.54 2.08,4.85 2.65,7.5 1.5,6.58 1.15,12.47 -0.81,18.12 -1.85,5.54 -5.2,10.62 -9.7,15.47l-16.04 17.31c-5.54,5.89 -10.73,11.77 -15.81,17.42 -3.46,3.92 -5.65,8.19 -6.81,12.81 -1.15,4.62 -1.39,9.58 -1.04,14.66l0.34 4.73 -2.65 2.42 -1.27 -1.38c-4.04,-4.16 -6.81,-8.77 -8.31,-13.62 -1.38,-4.62 -1.5,-9.58 -0.12,-14.89 1.73,-6.46 4.39,-12.58 7.73,-18.35 3.23,-5.65 7.16,-11.08 11.42,-16.27 5.89,-7.15 9,-16.73 9.35,-26.43 0.23,-9.58 -2.54,-19.16 -8.19,-26.54 -3.92,-5.19 -7.27,-10.62 -10.04,-16.38 -2.65,-5.77 -4.73,-11.77 -6.23,-18 -1.5,-6.35 -1.62,-12.7 -0.81,-18.81 0.81,-6.12 2.65,-12.12 5.08,-18 3.69,-8.89 8.54,-17.2 14.19,-24.81 5.65,-7.61 12.12,-14.65 19.04,-21.35 4.73,-4.5 9.69,-8.77 14.77,-13.15l9.46 -8.19 -4.27 -1.27c-5.77,-1.62 -11.43,-3.35 -16.74,-5.77 -5.31,-2.42 -10.16,-5.42 -15.23,-8.54l-4.16 -2.54c-1.04,6.58 -2.89,12.81 -6.23,18.35 -3.69,6.46 -9.12,12.23 -16.5,16.96l-4.04 2.54 2.77 -10.85c1.04,-4.04 2.08,-7.96 2.77,-11.89 1.5,-8.77 1.73,-17.54 0.69,-26.08 -1.04,-8.43 -3.46,-16.73 -7.04,-24.81 -6.12,-13.5 -7.73,-28.16 -5.08,-42.01 2.65,-13.73 9.46,-26.66 20.19,-37.04 7.73,-7.39 15.58,-14.19 23.43,-21l9.81 -8.54 -23.08 -19.73c-6.23,3.69 -13.39,12.35 -19.5,22.85 -6.58,11.2 -11.88,24.35 -13.85,35.77l-1.39 7.96 -2.42 -7.73c-1.15,-3.81 -1.39,-9.58 -0.93,-15.81 0.58,-6.35 1.85,-13.15 3.69,-18.93 2.08,-6.46 5.19,-12.47 8.77,-18.12 3.57,-5.54 7.61,-10.85 12,-16.04 0.69,-0.81 1.04,-1.38 1.04,-1.85 0,-0.34 -0.23,-0.92 -1.04,-1.73 -5.89,-6.35 -10.96,-13.27 -15.12,-20.65 -4.27,-7.27 -7.62,-15 -10.16,-23.2 -2.19,-7.16 -2.65,-14.08 -1.62,-20.89 1.04,-6.69 3.46,-13.27 6.93,-19.62 6.93,-12.58 15.7,-23.31 26.2,-32.19 10.62,-8.89 22.97,-15.81 36.93,-20.89 4.73,-1.73 9.35,-3.81 13.27,-6.46 3.92,-2.65 7.39,-5.89 10.27,-9.92 2.19,-3.23 3.12,-6.58 2.89,-10.04 -0.34,-3.57 -1.96,-7.39 -4.85,-10.96 -2.31,-2.89 -5.2,-4.96 -8.2,-5.89 -2.89,-0.92 -6.12,-1.04 -9.46,0l0.58 0.34c3.12,2.08 5.08,4.96 6,7.96 0.81,3.11 0.46,6.58 -1.27,9.58 -1.62,3 -4.5,5.31 -7.62,6.46 -3.12,1.15 -6.69,1.38 -10.04,0.23 -3.35,-1.15 -5.89,-3.46 -7.5,-6.35 -1.61,-2.89 -2.08,-6.23 -1.38,-9.69 0.69,-3.12 1.85,-6 3.46,-8.54 3,-4.62 7.39,-8.19 12.35,-10.16 4.96,-1.96 10.62,-2.54 16.16,-1.27 3.12,0.69 6.12,1.96 9,3.81 2.42,1.5 4.5,3.23 6.81,5.08l2.08 1.62c1.73,-1.62 3.69,-3.12 5.77,-4.16 2.65,-1.39 5.65,-2.19 9,-1.96 1.73,0.12 3.46,0.46 5.08,0.93 1.62,0.46 3.23,1.04 4.85,1.73l3.69 1.5 -3.46 1.96c-4.5,2.65 -7.62,5.89 -10.04,9.69 -2.42,3.81 -4.04,8.19 -5.42,12.81 -1.62,5.19 -4.04,9.92 -7.16,14.43 -2.19,3.12 -4.73,6.12 -7.62,9 7.73,0.11 15.35,1.04 22.5,2.65 8.77,2.08 17.08,5.31 24.93,9.81 7.85,4.38 15,9.69 22.27,15 3.46,2.54 6.93,5.08 10.39,7.62l2.42 1.62c10.73,7.5 21.46,15 34.74,17.77 4.5,0.92 8.89,1.38 13.39,1.38 3.57,0 7.27,-0.23 11.08,-0.81l-0.58 -0.81c-3.46,-4.27 -6.35,-8.89 -8.65,-13.62 -2.31,-4.85 -4.04,-10.04 -4.73,-15.46 -0.81,-5.65 0.12,-10.85 2.19,-15.35 2.31,-4.85 6.12,-9.23 10.96,-12.81 4.38,-3.23 9,-5.31 13.96,-5.89 4.73,-0.58 9.69,0.12 14.89,2.19 3.23,1.38 5.54,3.46 6.93,6 1.5,2.65 1.85,5.66 1.15,8.65 -0.81,3.23 -2.65,5.89 -5.08,7.62 -2.42,1.85 -5.42,2.65 -8.65,2.54 -3.35,-0.23 -6.23,-1.5 -8.31,-3.58 -2.08,-2.08 -3.58,-4.73 -4.16,-8.08l-1.15 -2.65 -3.46 1.27c-3.23,2.65 -5.54,6.93 -6.46,11.66 -0.92,4.73 -0.46,9.81 1.85,14.08 3,5.89 7.27,11.42 11.43,16.85l1.38 1.73 3.82 0.01c8.77,-4.27 15.92,-11.2 20.54,-19.39 4.73,-8.43 7.16,-18.35 6.23,-28.16 -0.93,-10.04 -4.73,-18.12 -10.27,-25.05 -5.65,-6.93 -13.27,-12.69 -21.58,-17.77 -1.5,-0.93 -3.23,-1.73 -4.96,-2.54l-3.81 -1.73 -1.04 1.04c-3.58,4.73 -8.08,7.96 -13.15,9.35 -4.96,1.5 -10.39,1.27 -15.93,-0.92 -4.96,-1.96 -9.81,-2.77 -14.54,-2.65 -4.73,0.12 -9.58,1.38 -14.31,3.23 -0.81,0.34 -1.73,0.81 -2.54,1.15 -4.38,2.54 -7.73,6.58 -9.58,10.96 -1.85,4.39 -2.08,9.23 -0.46,13.27l0.81 1.73c1.04,1.96 2.42,3.58 4.16,4.85 1.04,0.81 2.19,1.5 3.46,2.08l0 -0.35c-0.23,-3.69 0.81,-7.15 2.89,-9.81 2.08,-2.65 5.19,-4.62 9,-5.42 3.46,-0.81 6.93,0 9.92,1.62 2.89,1.73 5.31,4.5 6.58,7.85 1.15,3.23 0.93,6.69 -0.34,9.7 -1.39,2.89 -3.69,5.54 -6.93,7.16 -2.08,1.04 -4.27,1.85 -6.35,2.42 -6.81,1.62 -13.73,0.81 -19.73,-2.08 -6,-2.89 -11.08,-7.73 -14.31,-14.08 -1.04,-2.08 -1.96,-4.5 -2.54,-6.93 -2.42,-9.81 0,-19.62 5.31,-27.7 5.54,-8.66 14.54,-15.47 24.47,-18.47l2.54 -0.69c-11.31,-4.73 -20.43,-12.69 -26.31,-22.39 -6,-9.81 -8.89,-21.58 -7.62,-33.81 1.15,-11.54 6.35,-22.39 14.31,-30.93 7.85,-8.54 18.46,-14.77 30.23,-17.31l4.27 -0.81 4.27 -0.58c6.12,-0.69 10.73,-2.65 13.96,-5.89 3.12,-3.23 4.96,-7.73 5.31,-13.73 0.23,-1.39 0.58,-2.77 0.93,-4.04l2.31 1.38c2.08,1.15 3.69,2.65 4.85,4.16 1.96,2.54 2.89,5.42 2.89,8.54 0,3 -1.04,6.23 -2.89,9.46 -1.85,3.12 -4.61,6.23 -8.19,9.35l0.69 1.04c1.27,1.04 2.42,2.08 3.35,3.23 3.69,4.5 5.31,10.39 4.96,16.38 -0.34,5.89 -2.54,12 -6.46,17.08 -1.5,1.96 -3.23,3.69 -5.19,5.31 -2.89,2.42 -6.12,4.16 -9.35,5.31 -3.35,1.15 -6.93,1.85 -10.62,1.96 -3.46,0.12 -6.58,-0.81 -9,-2.54 -2.42,-1.73 -4.16,-4.38 -4.73,-7.39 -0.57,-3 0,-6.12 1.62,-8.54 1.5,-2.42 4.04,-4.5 7.04,-5.42 3.12,-1.04 6.12,-0.81 8.88,0.23 2.42,1.04 4.62,3 6.35,5.65 0.46,-0.92 0.69,-1.85 0.81,-2.77 0,-1.39 -0.46,-2.77 -1.62,-3.92l-0.34 -0.35c-3.46,-3 -5.89,-6.23 -6.81,-9.92 -0.81,-2.89 -0.58,-6.12 0.58,-9.58 -4.16,0.12 -7.96,0.81 -11.43,2.08 -4.27,1.62 -7.96,4.04 -11.42,7.27 -5.31,5.31 -9,11.2 -10.96,17.54 -1.96,6.23 -2.31,13.04 -0.93,20.19 0.69,3.58 2.19,6.93 4.27,9.92 2.08,3.11 4.73,5.89 7.5,8.54 5.08,4.73 10.62,8.31 16.73,10.73 5.54,2.19 11.77,3.46 18.35,3.69 0.46,-2.65 1.27,-5.31 2.42,-7.5 1.5,-2.89 3.69,-5.31 6.93,-7.04 2.42,-1.39 5.08,-2.08 7.73,-2.89l6.69 -2.08 -1.73 7.96c-0.69,2.77 -1.27,5.31 -1.5,7.73 -0.23,3.46 0.46,6.46 1.96,9.12 1.62,2.77 3.92,5.2 6.81,7.5l6.35 4.85c8.65,6.69 17.42,13.5 24.47,21.58 7.96,9.23 12.23,19.16 13.27,29.55 1.04,10.85 -1.62,22.04 -7.39,33.23 -2.65,5.31 -5.19,9.12 -9.24,13.16 -3.69,3.69 -8.65,7.61 -16.38,13.27l1.04 1.27c1.62,1.85 3.23,3.81 4.85,5.77 9.69,12.35 16.39,25.39 19.62,39.24 3.35,13.85 3.23,28.39 -0.58,43.62 -0.23,0.92 -0.34,1.85 -0.34,2.89 0,0.92 0.11,1.85 0.46,2.65 10.5,30.58 21.46,61.74 32.31,93.01l0.92 2.65 58.28 -249.03c8.77,-37.62 17.66,-75.24 26.2,-112.4 0.23,-1.39 0.46,-2.89 0.35,-4.39 0,-1.62 -0.23,-3.23 -0.69,-4.73 -1.73,-6.81 -3.46,-13.39 -5.31,-20.08 -2.54,-9.23 -4.96,-18.35 -7.16,-27.81 -1.5,-6.58 -1.85,-13.04 -1.39,-19.5 0.46,-6.46 1.73,-12.81 3.46,-19.16 0.93,-3.35 2.65,-6.23 4.96,-8.19 2.42,-2.08 5.31,-3.46 8.43,-3.57 2.65,-0.12 5.42,0.81 7.85,2.65 2.42,1.73 4.62,4.27 6.12,7.16 3.92,7.62 4.38,15.7 4.85,23.66l0.23 3.81c0.81,10.96 0.81,21.93 0,32.77 -0.81,10.85 -2.42,21.7 -4.62,32.55 -0.23,1.15 -0.34,2.54 -0.23,3.81 0,1.39 0.23,2.77 0.58,4.16 1.85,7.27 4.04,14.54 6,21.7l1.85 6.35 3.46 -12.47c2.54,-9.35 5.19,-18.81 7.62,-28.04 0.23,-0.81 0.34,-1.73 0.34,-2.65 0,-0.81 -0.11,-1.85 -0.34,-2.65l-1.27 -4.85c-3.92,-14.66 -7.73,-29.43 -8.19,-44.89 -0.11,-5.54 -0.23,-11.2 0.35,-16.73 0.57,-5.54 1.85,-11.2 4.27,-16.5 1.27,-2.89 3,-5.42 5.19,-7.16 2.08,-1.62 4.5,-2.65 7.5,-2.65 3,-0.12 5.54,0.81 7.73,2.42 2.31,1.73 4.16,4.16 5.42,7.04 4.04,9 4.38,18.35 4.85,27.58l0.11 2.54c0.58,10.27 0.12,20.43 -0.92,30.47 -1.15,10.04 -3,20.08 -5.65,30 -0.23,0.93 -0.35,1.96 -0.35,3 0,1.04 0.12,2.08 0.46,3l181.76 676.5c0.81,2.89 1.85,5.31 3.35,7.62 1.27,1.96 2.77,3.69 4.39,5.19l4.73 -4.5c4.5,-4.27 8.77,-8.54 13.73,-12.12 4.73,-3.58 10.04,-6.12 15.58,-7.73 5.54,-1.62 11.31,-2.42 17.31,-2.65 2.19,-0.12 4.16,0.12 6,0.69 3,0.81 5.54,2.54 7.27,4.73 1.73,2.19 2.77,4.96 2.89,8.08 0,1.73 -0.12,3.58 -0.69,5.54 -3.12,10.73 -9,19.39 -16.73,25.39 -7.73,5.89 -17.31,9 -28.04,8.65 -4.27,-0.12 -8.43,-1.39 -12.47,-2.54 -1.96,-0.58 -4.04,-1.15 -6.12,-1.62l-3.93 0.23c-7.04,4.27 -14.31,5.77 -21.12,4.61 -6.93,-1.15 -13.5,-5.08 -19.04,-11.54 -4.5,-5.31 -8.19,-10.96 -11.31,-16.85 -3.12,-5.89 -5.54,-12.23 -7.27,-18.81 -10.62,-38.66 -21.46,-78.12 -32.31,-117.59l-59.78 -217.07 -55.74 -201.95 -11.66 -42.7 -4.04 14.43 -43.16 157.06c-14.08,51.12 -28.04,102.25 -42.81,156.25 -0.23,0.93 -0.34,1.96 -0.23,3 0,1.27 0.23,2.65 0.69,3.81 0.92,3.23 2.08,6.58 3.23,9.81 0.92,2.65 1.85,5.31 2.77,8.08 1.39,4.27 1.5,8.43 0.46,12.23 -1.04,3.81 -3.23,7.39 -6.58,10.62 -1.39,1.27 -0.81,2.54 -0.35,4.04l3.35 9.35c2.54,7.16 5.08,14.31 7.5,21.58 2.19,6.46 1.38,13.27 -1.62,18.93 -2.89,5.65 -8.19,10.39 -14.89,12.58l-0.23 0.11c-6.69,2.19 -13.85,1.73 -19.85,-0.81 -6.12,-2.65 -10.96,-7.39 -13.27,-13.85l-0.11 -0.23c-0.81,-2.54 -1.15,-5.31 -1.15,-8.19 0,-3.23 0.46,-6.58 1.04,-9.58 1.27,-6.12 3,-12.23 4.85,-18.23 1.04,-3.46 2.08,-6.93 2.89,-10.39l-0.93 -3.58c-3.92,-3.23 -6.46,-6.93 -7.73,-10.96 -1.39,-4.16 -1.5,-8.77 -0.34,-13.62 0.81,-3.57 1.85,-6.93 2.89,-10.27 0.81,-2.42 1.5,-4.96 2.08,-7.27l-0.12 -4.27 -42 -122.44 -0.7 -0.35 0 0z"/>
  </g>
 </g>
</svg>
